<svg width="32" height="33" viewBox="0 0 32 33" fill="none" xmlns="http://www.w3.org/2000/svg">
<g opacity="0.8">
<path d="M22.132 24.3243C21.2752 24.3243 20.7473 23.9286 19.8847 23.4627C19.0221 22.9968 16.5275 21.1209 16.5275 18.7858C16.5275 17.2017 16.1191 15.9204 15.4237 14.8994C14.7335 13.8862 13.7984 13.1842 12.8256 12.6886C12.3568 12.4499 11.869 12.2546 11.3833 12.0933C11.1001 11.9993 10.9358 11.6952 11.0586 11.4234C11.8374 9.69945 13.5716 8.5 15.5862 8.5C18.3285 8.5 20.5518 10.7231 20.5518 13.4655C20.5518 14.0523 20.45 14.6153 20.2632 15.1377C21.0547 14.6043 22.0083 14.2931 23.0345 14.2931C25.7769 14.2931 27.9999 16.5162 27.9999 19.2586C27.9999 22.5601 25.0988 24.3243 22.132 24.3243Z" fill="#8FB2F5"/>
<path d="M4 18.8449C4 21.4623 5.72564 23.6432 8.01169 24.1251C8.36454 24.254 8.74548 24.3243 9.14288 24.3243H16.8578C17.1166 24.3243 17.2292 23.9783 17.0317 23.8111C15.6834 22.6703 14.6814 21.0625 14.6814 18.7858C14.6814 17.5348 14.3646 16.6237 13.8979 15.9388C13.4259 15.2459 12.7621 14.7281 11.9877 14.3336C11.2062 13.9355 10.3577 13.6819 9.54738 13.5022C9.35654 13.4781 9.16232 13.4656 8.96555 13.4656C6.2231 13.4656 4 15.874 4 18.8449Z" fill="#8FB2F5"/>
</g>
</svg>
